<mxfile host="65bd71144e">
    <diagram id="V289oaI07x4DqH-8q4zN" name="Page-1">
        <mxGraphModel dx="792" dy="640" grid="1" gridSize="10" guides="1" tooltips="1" connect="1" arrows="1" fold="1" page="1" pageScale="1" pageWidth="827" pageHeight="1169" math="0" shadow="0">
            <root>
                <mxCell id="0"/>
                <mxCell id="1" parent="0"/>
                <mxCell id="Q33Z5oH5BxrgBmgDQmJd-7" style="edgeStyle=orthogonalEdgeStyle;html=1;entryX=0.5;entryY=0;entryDx=0;entryDy=0;rounded=0;" edge="1" parent="1" source="Q33Z5oH5BxrgBmgDQmJd-2" target="Q33Z5oH5BxrgBmgDQmJd-3">
                    <mxGeometry relative="1" as="geometry">
                        <Array as="points">
                            <mxPoint x="414" y="180"/>
                            <mxPoint x="170" y="180"/>
                        </Array>
                    </mxGeometry>
                </mxCell>
                <mxCell id="Q33Z5oH5BxrgBmgDQmJd-8" style="edgeStyle=orthogonalEdgeStyle;html=1;entryX=0.5;entryY=0;entryDx=0;entryDy=0;rounded=0;" edge="1" parent="1" source="Q33Z5oH5BxrgBmgDQmJd-2" target="Q33Z5oH5BxrgBmgDQmJd-5">
                    <mxGeometry relative="1" as="geometry">
                        <Array as="points">
                            <mxPoint x="414" y="180"/>
                            <mxPoint x="690" y="180"/>
                        </Array>
                    </mxGeometry>
                </mxCell>
                <mxCell id="Q33Z5oH5BxrgBmgDQmJd-15" style="edgeStyle=orthogonalEdgeStyle;shape=connector;rounded=0;html=1;entryX=0.5;entryY=0;entryDx=0;entryDy=0;labelBackgroundColor=default;fontFamily=Helvetica;fontSize=11;fontColor=default;endArrow=classic;strokeColor=default;" edge="1" parent="1" source="Q33Z5oH5BxrgBmgDQmJd-2" target="Q33Z5oH5BxrgBmgDQmJd-4">
                    <mxGeometry relative="1" as="geometry"/>
                </mxCell>
                <mxCell id="Q33Z5oH5BxrgBmgDQmJd-2" value="Area and Perimeter" style="rounded=0;whiteSpace=wrap;html=1;" vertex="1" parent="1">
                    <mxGeometry x="354" y="80" width="120" height="60" as="geometry"/>
                </mxCell>
                <mxCell id="Q33Z5oH5BxrgBmgDQmJd-13" style="edgeStyle=orthogonalEdgeStyle;rounded=0;html=1;entryX=0.5;entryY=0;entryDx=0;entryDy=0;elbow=vertical;" edge="1" parent="1" source="Q33Z5oH5BxrgBmgDQmJd-3" target="Q33Z5oH5BxrgBmgDQmJd-9">
                    <mxGeometry relative="1" as="geometry"/>
                </mxCell>
                <mxCell id="Q33Z5oH5BxrgBmgDQmJd-14" style="edgeStyle=orthogonalEdgeStyle;shape=connector;rounded=0;html=1;labelBackgroundColor=default;fontFamily=Helvetica;fontSize=11;fontColor=default;endArrow=classic;strokeColor=default;elbow=vertical;" edge="1" parent="1" source="Q33Z5oH5BxrgBmgDQmJd-3" target="Q33Z5oH5BxrgBmgDQmJd-10">
                    <mxGeometry relative="1" as="geometry"/>
                </mxCell>
                <mxCell id="Q33Z5oH5BxrgBmgDQmJd-3" value="Input" style="rounded=0;whiteSpace=wrap;html=1;" vertex="1" parent="1">
                    <mxGeometry x="110" y="270" width="120" height="60" as="geometry"/>
                </mxCell>
                <mxCell id="Q33Z5oH5BxrgBmgDQmJd-18" style="edgeStyle=orthogonalEdgeStyle;shape=connector;rounded=0;html=1;entryX=0.5;entryY=0;entryDx=0;entryDy=0;labelBackgroundColor=default;fontFamily=Helvetica;fontSize=11;fontColor=default;endArrow=classic;strokeColor=default;" edge="1" parent="1" source="Q33Z5oH5BxrgBmgDQmJd-4" target="Q33Z5oH5BxrgBmgDQmJd-16">
                    <mxGeometry relative="1" as="geometry"/>
                </mxCell>
                <mxCell id="Q33Z5oH5BxrgBmgDQmJd-19" style="edgeStyle=orthogonalEdgeStyle;shape=connector;rounded=0;html=1;exitX=0.5;exitY=1;exitDx=0;exitDy=0;entryX=0.5;entryY=0;entryDx=0;entryDy=0;labelBackgroundColor=default;fontFamily=Helvetica;fontSize=11;fontColor=default;endArrow=classic;strokeColor=default;" edge="1" parent="1" source="Q33Z5oH5BxrgBmgDQmJd-4" target="Q33Z5oH5BxrgBmgDQmJd-17">
                    <mxGeometry relative="1" as="geometry"/>
                </mxCell>
                <mxCell id="Q33Z5oH5BxrgBmgDQmJd-4" value="Process" style="rounded=0;whiteSpace=wrap;html=1;" vertex="1" parent="1">
                    <mxGeometry x="354" y="270" width="120" height="60" as="geometry"/>
                </mxCell>
                <mxCell id="Q33Z5oH5BxrgBmgDQmJd-22" style="edgeStyle=orthogonalEdgeStyle;shape=connector;rounded=0;html=1;entryX=0.5;entryY=0;entryDx=0;entryDy=0;labelBackgroundColor=default;fontFamily=Helvetica;fontSize=11;fontColor=default;endArrow=classic;strokeColor=default;" edge="1" parent="1" source="Q33Z5oH5BxrgBmgDQmJd-5" target="Q33Z5oH5BxrgBmgDQmJd-20">
                    <mxGeometry relative="1" as="geometry"/>
                </mxCell>
                <mxCell id="Q33Z5oH5BxrgBmgDQmJd-23" style="edgeStyle=orthogonalEdgeStyle;shape=connector;rounded=0;html=1;entryX=0.5;entryY=0;entryDx=0;entryDy=0;labelBackgroundColor=default;fontFamily=Helvetica;fontSize=11;fontColor=default;endArrow=classic;strokeColor=default;" edge="1" parent="1" source="Q33Z5oH5BxrgBmgDQmJd-5" target="Q33Z5oH5BxrgBmgDQmJd-21">
                    <mxGeometry relative="1" as="geometry"/>
                </mxCell>
                <mxCell id="Q33Z5oH5BxrgBmgDQmJd-5" value="Output" style="rounded=0;whiteSpace=wrap;html=1;" vertex="1" parent="1">
                    <mxGeometry x="630" y="270" width="120" height="60" as="geometry"/>
                </mxCell>
                <mxCell id="Q33Z5oH5BxrgBmgDQmJd-9" value="Get Length" style="rounded=0;whiteSpace=wrap;html=1;" vertex="1" parent="1">
                    <mxGeometry x="40" y="510" width="120" height="60" as="geometry"/>
                </mxCell>
                <mxCell id="Q33Z5oH5BxrgBmgDQmJd-10" value="Get Width" style="rounded=0;whiteSpace=wrap;html=1;" vertex="1" parent="1">
                    <mxGeometry x="170" y="510" width="120" height="60" as="geometry"/>
                </mxCell>
                <mxCell id="Q33Z5oH5BxrgBmgDQmJd-16" value="Calculates the Length and width to show Area" style="rounded=0;whiteSpace=wrap;html=1;fontFamily=Helvetica;fontSize=11;fontColor=default;" vertex="1" parent="1">
                    <mxGeometry x="294" y="420" width="120" height="60" as="geometry"/>
                </mxCell>
                <mxCell id="Q33Z5oH5BxrgBmgDQmJd-17" value="Calculate the length and width to show Perimeter" style="rounded=0;whiteSpace=wrap;html=1;fontFamily=Helvetica;fontSize=11;fontColor=default;" vertex="1" parent="1">
                    <mxGeometry x="440" y="420" width="120" height="60" as="geometry"/>
                </mxCell>
                <mxCell id="Q33Z5oH5BxrgBmgDQmJd-20" value="Show Calculated Perimeter" style="rounded=0;whiteSpace=wrap;html=1;fontFamily=Helvetica;fontSize=11;fontColor=default;" vertex="1" parent="1">
                    <mxGeometry x="560" y="510" width="120" height="60" as="geometry"/>
                </mxCell>
                <mxCell id="Q33Z5oH5BxrgBmgDQmJd-21" value="Show Calculated Area" style="rounded=0;whiteSpace=wrap;html=1;fontFamily=Helvetica;fontSize=11;fontColor=default;" vertex="1" parent="1">
                    <mxGeometry x="707" y="510" width="120" height="60" as="geometry"/>
                </mxCell>
            </root>
        </mxGraphModel>
    </diagram>
</mxfile>